<svg xmlns="http://www.w3.org/2000/svg" width="16" height="16" viewBox="0 0 16 16">
    <path data-name="패스 474" d="M7.38.945 8.912 4.04a.494.494 0 0 0 .4.289l3.384.5a.521.521 0 0 1 .289.9l-2.439 2.42a.511.511 0 0 0-.154.463l.589 3.4a.531.531 0 0 1-.772.559l-3.046-1.61a.565.565 0 0 0-.5 0l-3.046 1.61a.531.531 0 0 1-.772-.559l.589-3.442a.511.511 0 0 0-.154-.463L.8 5.727a.521.521 0 0 1 .319-.9l3.384-.5a.494.494 0 0 0 .4-.289L6.435.945a.521.521 0 0 1 .945 0z" transform="translate(1.044 1.124)" style="fill:#ffbf29"/>
</svg>
