<svg xmlns="http://www.w3.org/2000/svg" width="11" height="11" viewBox="0 0 11 11">
    <path d="M2.9.38A.685.685 0 0 1 3.519 0h2.587a.685.685 0 0 1 .614.38l.155.307h2.063a.688.688 0 0 1 0 1.375H.688a.688.688 0 0 1 0-1.375H2.75zM.688 2.75h8.25v6.875A1.376 1.376 0 0 1 7.563 11h-5.5A1.376 1.376 0 0 1 .688 9.625zM2.75 4.125a.345.345 0 0 0-.344.344v4.812a.344.344 0 0 0 .688 0V4.469a.345.345 0 0 0-.344-.344zm2.063 0a.345.345 0 0 0-.344.344v4.812a.344.344 0 0 0 .688 0V4.469a.345.345 0 0 0-.344-.344zm2.063 0a.345.345 0 0 0-.344.344v4.812a.344.344 0 0 0 .688 0V4.469a.345.345 0 0 0-.345-.344z" transform="translate(.688)" style="fill:#5c7099"/>
</svg>
