<svg xmlns="http://www.w3.org/2000/svg" width="11" height="11" viewBox="0 0 11 11">
    <path d="M1.571 32A1.573 1.573 0 0 0 0 33.571v7.857A1.573 1.573 0 0 0 1.571 43h7.858A1.573 1.573 0 0 0 11 41.429v-5.96a1.572 1.572 0 0 0-.459-1.112l-1.9-1.9A1.572 1.572 0 0 0 7.531 32zm0 2.357a.785.785 0 0 1 .786-.786h4.714a.785.785 0 0 1 .786.786v1.571a.785.785 0 0 1-.786.786H2.357a.785.785 0 0 1-.786-.786zM5.5 38.286a1.571 1.571 0 1 1-1.571 1.571A1.571 1.571 0 0 1 5.5 38.286z" transform="translate(0 -32)" style="fill:#fff"/>
</svg>
