<svg xmlns="http://www.w3.org/2000/svg" width="11" height="11" viewBox="0 0 11 11">
    <path style="fill:none" d="M0 0h11v11H0z"/>
    <path d="M10.132 5.628a1.2 1.2 0 0 0-1.7 0l-.647.645 2.1 2.1.647-.647a1.2 1.2 0 0 0 0-1.7zM3.7 10.354a1.187 1.187 0 0 0-.29.471l-.636 1.908a.518.518 0 0 0 .125.529.512.512 0 0 0 .529.125l1.908-.636a1.218 1.218 0 0 0 .471-.29L9.4 8.863 7.3 6.758zM2.063 6.537A2.063 2.063 0 0 0 0 8.6v5.5a2.063 2.063 0 0 0 2.063 2.062h5.5A2.063 2.063 0 0 0 9.625 14.1v-2.063a.688.688 0 0 0-1.375 0V14.1a.687.687 0 0 1-.687.688h-5.5a.687.687 0 0 1-.687-.687V8.6a.687.687 0 0 1 .688-.687h2.061a.688.688 0 0 0 0-1.375z" transform="translate(.064 -5.21)" style="fill:#888"/>
</svg>
