<svg xmlns="http://www.w3.org/2000/svg" width="9" height="10" viewBox="0 0 9 10">
    <path d="M4.962 10.642v-2.5a.378.378 0 0 1 .346-.354h1.384a.378.378 0 0 1 .346.357v2.5a.352.352 0 0 0 .347.355h2.769a.352.352 0 0 0 .346-.357v-5a.363.363 0 0 0-.1-.253l-.937-.966V2.071a.352.352 0 0 0-.346-.357h-.694a.352.352 0 0 0-.346.357v.924L6.245 1.1a.339.339 0 0 0-.49 0L1.6 5.389a.363.363 0 0 0-.1.253v5a.352.352 0 0 0 .346.358h2.769a.352.352 0 0 0 .347-.358z" transform="translate(-1.5 -.999)" style="fill:#7d8fb2"/>
</svg>
