<svg xmlns="http://www.w3.org/2000/svg" width="19" height="19" viewBox="0 0 19 19">
    <path d="M18.44 3.535a.893.893 0 0 1 .56.828v10.312a.893.893 0 0 1-.56.828l-8.61 3.452a.889.889 0 0 1-.661 0L.559 15.5A.893.893 0 0 1 0 14.675V4.364a.893.893 0 0 1 .559-.828L8.839.215h.012l.318-.132a.889.889 0 0 1 .663 0l.319.129h.012zm-6.085-1.158-7.308 2.93-2.855-1.144-1 .4v.476l7.714 3.098v9.43l.594.238.594-.238V8.138l7.719-3.095v-.476l-1-.4L9.5 7.092 6.645 5.948l7.308-2.929z" transform="translate(0 -.019)" style="fill:#fff;fill-rule:evenodd"/>
</svg>
